<?xml version="1.0" encoding="UTF-8"?>
<!DOCTYPE svg PUBLIC "-//W3C//DTD SVG 1.1//EN" "http://www.w3.org/Graphics/SVG/1.1/DTD/svg11.dtd">
<svg xmlns="http://www.w3.org/2000/svg" version="1.1" width="800px" height="150px" style="shape-rendering:geometricPrecision; text-rendering:geometricPrecision; image-rendering:optimizeQuality; fill-rule:evenodd; clip-rule:evenodd" xmlns:xlink="http://www.w3.org/1999/xlink">
<g><path style="opacity:0.949" fill="#704eae" d="M 291.5,99.5 C 292.278,100.156 292.944,100.989 293.5,102C 282.499,127.849 262.832,140.682 234.5,140.5C 207.316,139.954 187.649,127.621 175.5,103.5C 175.863,102.817 176.196,102.15 176.5,101.5C 175.504,101.586 174.671,101.252 174,100.5C 163.028,67.0893 171.528,39.9226 199.5,19C 220.515,7.88776 242.182,6.55443 264.5,15C 277.059,20.7256 286.059,29.8923 291.5,42.5C 291.392,43.4419 291.059,44.2753 290.5,45C 282.94,48.3633 275.44,51.8633 268,55.5C 255.431,37.8935 238.931,33.0602 218.5,41C 197.992,55.5296 193.492,74.0296 205,96.5C 218.798,113.8 235.631,117.3 255.5,107C 261.006,103.016 264.673,97.8496 266.5,91.5C 252.167,91.5 237.833,91.5 223.5,91.5C 226.601,83.2937 230.268,75.2937 234.5,67.5C 255.489,66.5003 276.489,66.167 297.5,66.5C 298.055,76.9641 297.222,87.2975 295,97.5C 294.29,98.9733 293.124,99.6399 291.5,99.5 Z M 291.5,99.5 C 290.041,99.4326 288.708,99.7659 287.5,100.5C 288.103,96.8805 289.436,96.5472 291.5,99.5 Z M 179.5,99.5 C 180.623,98.2426 181.289,98.5759 181.5,100.5C 180.833,100.167 180.167,99.8333 179.5,99.5 Z M 179.5,99.5 C 179.027,100.906 178.027,101.573 176.5,101.5C 176.973,100.094 177.973,99.427 179.5,99.5 Z M 222.5,132.5 C 230.825,133.645 239.158,133.645 247.5,132.5C 239.162,135.112 230.828,135.112 222.5,132.5 Z"/></g>
<g><path style="opacity:0.934" fill="#704eae" d="M 542.5,50.5 C 543.5,50.5 544.5,50.5 545.5,50.5C 549.5,66.8333 549.5,83.1667 545.5,99.5C 544.5,99.5 543.5,99.5 542.5,99.5C 542.953,100.458 543.619,101.292 544.5,102C 533.292,128.126 513.292,140.959 484.5,140.5C 458.674,139.675 439.508,128.008 427,105.5C 426.316,104.216 426.483,103.049 427.5,102C 426.552,101.517 425.552,101.351 424.5,101.5C 414.195,70.3827 420.862,44.2161 444.5,23C 470.724,5.73269 497.391,5.06602 524.5,21C 534.033,28.0398 540.699,37.2065 544.5,48.5C 543.757,49.1818 543.091,49.8485 542.5,50.5 Z M 497.5,17.5 C 489.493,16.2971 481.493,16.2971 473.5,17.5C 481.5,14.8333 489.5,14.8333 497.5,17.5 Z M 529.5,34.5 C 530.906,34.9731 531.573,35.9731 531.5,37.5C 530.094,37.0269 529.427,36.0269 529.5,34.5 Z M 477.5,37.5 C 509.055,36.56 523.222,51.8933 520,83.5C 514.484,105.656 500.318,115.156 477.5,112C 456.531,104.577 447.364,89.7435 450,67.5C 453.842,52.4962 463.009,42.4962 477.5,37.5 Z M 432.5,49.5 C 432.013,52.7145 431.013,53.0478 429.5,50.5C 430.609,50.4431 431.609,50.1098 432.5,49.5 Z M 538.5,49.5 C 539.708,50.2341 541.041,50.5674 542.5,50.5C 540.202,53.3465 538.869,53.0132 538.5,49.5 Z M 542.5,99.5 C 541.041,99.4326 539.708,99.7659 538.5,100.5C 538.869,96.9868 540.202,96.6535 542.5,99.5 Z M 429.5,99.5 C 430.947,98.1148 431.947,98.4482 432.5,100.5C 431.609,99.8902 430.609,99.5569 429.5,99.5 Z M 502.5,131.5 C 492.917,134.883 483.25,135.216 473.5,132.5C 483.195,133.593 492.862,133.26 502.5,131.5 Z"/></g>
<g><path style="opacity:0.957" fill="#704eae" d="M 28.5,24.5 C 28.5,23.8333 28.1667,23.5 27.5,23.5C 27.6716,22.5084 27.3382,21.8417 26.5,21.5C 26.6716,20.5084 26.3382,19.8417 25.5,19.5C 23.9565,17.0722 22.9565,14.4056 22.5,11.5C 31.8333,11.5 41.1667,11.5 50.5,11.5C 50.5,53.8333 50.5,96.1667 50.5,138.5C 43.5,138.5 36.5,138.5 29.5,138.5C 29.8318,100.33 29.4985,62.3297 28.5,24.5 Z"/></g>
<g><path style="opacity:0.954" fill="#704eae" d="M 104.5,131.5 C 105.338,131.158 105.672,130.492 105.5,129.5C 106.167,129.5 106.5,129.167 106.5,128.5C 107.338,128.158 107.672,127.492 107.5,126.5C 108.338,126.158 108.672,125.492 108.5,124.5C 109.663,99.67 109.83,74.67 109,49.5C 108.617,48.944 108.117,48.6107 107.5,48.5C 107.672,47.5084 107.338,46.8417 106.5,46.5C 106.672,45.5084 106.338,44.8417 105.5,44.5C 105.5,43.8333 105.167,43.5 104.5,43.5C 104.249,41.8297 103.582,40.3297 102.5,39C 91.8333,38.6667 81.1667,38.3333 70.5,38C 67.7602,29.5463 65.0936,21.0463 62.5,12.5C 97.827,11.5001 133.16,11.1668 168.5,11.5C 167.025,20.5653 164.692,29.3986 161.5,38C 151.172,38.4998 140.839,38.6665 130.5,38.5C 130.5,71.8333 130.5,105.167 130.5,138.5C 120.81,138.832 111.144,138.498 101.5,137.5C 103.038,135.757 104.038,133.757 104.5,131.5 Z"/></g>
<g><path style="opacity:0.972" fill="#704eae" d="M 321.5,35.5 C 321.672,34.5084 321.338,33.8417 320.5,33.5C 320.672,32.5084 320.338,31.8417 319.5,31.5C 315.962,25.0901 312.962,18.4234 310.5,11.5C 332.886,11.043 355.22,11.543 377.5,13C 394.642,18.9957 403.642,31.1624 404.5,49.5C 404.14,58.4156 401.307,66.4156 396,73.5C 392.585,77.4224 388.751,80.7557 384.5,83.5C 394.5,101.5 404.5,119.5 414.5,137.5C 403.5,138.833 392.5,138.833 381.5,137.5C 372.167,120.833 362.833,104.167 353.5,87.5C 350.572,86.5159 347.572,86.1826 344.5,86.5C 344.5,103.833 344.5,121.167 344.5,138.5C 337.833,138.5 331.167,138.5 324.5,138.5C 324.667,105.165 324.5,71.8317 324,38.5C 323.623,37.0577 322.79,36.0577 321.5,35.5 Z M 344.5,38.5 C 353.173,38.3336 361.84,38.5002 370.5,39C 377.414,42.7697 379.247,48.2697 376,55.5C 374.457,57.3783 372.624,58.8783 370.5,60C 361.84,60.4998 353.173,60.6664 344.5,60.5C 344.5,53.1667 344.5,45.8333 344.5,38.5 Z"/></g>
<g><path style="opacity:0.936" fill="#704eae" d="M 564.5,11.5 C 566.167,11.5 567.833,11.5 569.5,11.5C 569.833,131.5 570.167,131.5 570.5,11.5C 578.167,11.5 585.833,11.5 593.5,11.5C 593.333,40.5019 593.5,69.5019 594,98.5C 599.221,110.53 608.387,115.363 621.5,113C 628.909,110.592 634.076,105.758 637,98.5C 637.5,69.5019 637.667,40.5019 637.5,11.5C 647.167,11.5 656.833,11.5 666.5,11.5C 666.667,40.8352 666.5,70.1686 666,99.5C 661.87,119.249 650.704,132.083 632.5,138C 604.203,145.257 582.703,136.424 568,111.5C 566.592,107.943 565.592,104.276 565,100.5C 564.5,70.8352 564.333,41.1685 564.5,11.5 Z M 632.5,132.5 C 627.1,135.15 621.267,136.484 615,136.5C 611.218,136.621 607.718,135.954 604.5,134.5C 613.957,135.817 623.291,135.15 632.5,132.5 Z"/></g>
<g><path style="opacity:0.963" fill="#704eae" d="M 695.5,38.5 C 695.672,37.5084 695.338,36.8417 694.5,36.5C 694.672,35.5084 694.338,34.8417 693.5,34.5C 693.672,33.5084 693.338,32.8417 692.5,32.5C 688.888,25.6105 685.555,18.6105 682.5,11.5C 705.211,11.0535 727.878,11.5535 750.5,13C 771.731,21.9595 779.898,37.7929 775,60.5C 770.3,73.8686 761.133,82.3686 747.5,86C 737.506,86.4998 727.506,86.6665 717.5,86.5C 717.5,103.833 717.5,121.167 717.5,138.5C 710.5,138.5 703.5,138.5 696.5,138.5C 696.832,104.996 696.498,71.6625 695.5,38.5 Z M 717.5,38.5 C 725.84,38.3336 734.173,38.5003 742.5,39C 752.719,45.5382 753.052,52.5382 743.5,60C 734.84,60.4998 726.173,60.6664 717.5,60.5C 717.5,53.1667 717.5,45.8333 717.5,38.5 Z"/></g>
<g><path style="opacity:0.869" fill="#704eae" d="M 25.5,19.5 C 25.3284,20.4916 25.6618,21.1583 26.5,21.5C 26.3284,22.4916 26.6618,23.1583 27.5,23.5C 28.1667,23.5 28.5,23.8333 28.5,24.5C 28.5,62.5 28.5,100.5 28.5,138.5C 26.5,138.5 24.5,138.5 22.5,138.5C 22.3333,98.1653 22.5,57.832 23,17.5C 23.7083,18.3805 24.5416,19.0472 25.5,19.5 Z"/></g>
<g><path style="opacity:0.949" fill="#704eae" d="M 319.5,31.5 C 319.328,32.4916 319.662,33.1583 320.5,33.5C 320.328,34.4916 320.662,35.1583 321.5,35.5C 322.486,69.79 322.82,104.123 322.5,138.5C 320.5,138.5 318.5,138.5 316.5,138.5C 316.167,102.494 316.5,66.4938 317.5,30.5C 318.183,30.8627 318.85,31.1961 319.5,31.5 Z"/></g>
<g><path style="opacity:0.816" fill="#704eae" d="M 692.5,32.5 C 692.328,33.4916 692.662,34.1583 693.5,34.5C 693.328,35.4916 693.662,36.1583 694.5,36.5C 694.328,37.4916 694.662,38.1583 695.5,38.5C 695.5,71.8333 695.5,105.167 695.5,138.5C 693.167,138.5 690.833,138.5 688.5,138.5C 688.167,102.494 688.5,66.4938 689.5,30.5C 690.518,31.1925 691.518,31.8592 692.5,32.5 Z"/></g>
<g><path style="opacity:0.776" fill="#704eae" d="M 104.5,43.5 C 105.167,43.5 105.5,43.8333 105.5,44.5C 105.328,45.4916 105.662,46.1583 106.5,46.5C 106.328,47.4916 106.662,48.1583 107.5,48.5C 108.481,73.7887 108.815,99.122 108.5,124.5C 107.662,124.842 107.328,125.508 107.5,126.5C 106.662,126.842 106.328,127.508 106.5,128.5C 105.833,128.5 105.5,128.833 105.5,129.5C 104.662,129.842 104.328,130.508 104.5,131.5C 103.603,132.598 102.77,132.598 102,131.5C 101.167,101.828 101.333,72.1611 102.5,42.5C 103.183,42.8627 103.85,43.1961 104.5,43.5 Z"/></g>
</svg>
