<svg width="22" height="20" viewBox="0 0 22 20" fill="none" xmlns="http://www.w3.org/2000/svg">
<path d="M17.167 14.5C15.667 14.5 14.417 15.75 14.417 17.25C14.417 18.75 15.5837 20 17.167 20C18.667 20 19.917 18.75 19.917 17.25C19.917 15.75 18.667 14.5 17.167 14.5ZM17.167 16.3333C17.667 16.3333 18.167 16.8333 18.167 17.3333C18.167 17.8333 17.7503 18.3333 17.167 18.3333C16.5837 18.3333 16.167 17.9167 16.167 17.3333C16.167 16.75 16.667 16.3333 17.167 16.3333Z" fill="#151528"/>
<path d="M21.5 4.08333C21.4167 3.83333 21.0833 3.66667 20.9167 3.66667H5.08333L4.33333 0.666667C4.25 0.333333 3.83333 0 3.5 0H0.833333C0.416667 0 0 0.416667 0 0.833333C0 1.25 0.416667 1.66667 0.833333 1.66667H2.83333L5.41667 12.75C5.5 13 5.83333 13.3333 6.16667 13.3333H18.8333C19.1667 13.3333 19.5 13.0833 19.5833 12.6667L21.6667 4.75C21.75 4.41667 21.5833 4.25 21.5 4.08333ZM6.91667 11.75L5.41667 5.33333H19.75L18.25 11.75H6.91667Z" fill="#151528"/>
<path d="M7.41699 14.5C5.91699 14.5 4.66699 15.75 4.66699 17.25C4.66699 18.75 5.83366 20 7.41699 20C8.91699 20 10.167 18.75 10.167 17.25C10.167 15.75 8.91699 14.5 7.41699 14.5ZM7.41699 16.3333C7.91699 16.3333 8.41699 16.8333 8.41699 17.3333C8.41699 17.8333 8.00033 18.3333 7.41699 18.3333C6.83366 18.3333 6.41699 17.9167 6.41699 17.3333C6.41699 16.75 6.91699 16.3333 7.41699 16.3333Z" fill="#151528"/>
</svg>
