<svg width="25" height="16" viewBox="0 0 25 16" fill="none" xmlns="http://www.w3.org/2000/svg">
<path d="M15.3512 1.78027C12.503 1.78027 10.1684 4.15254 10.1684 7.1109C10.1684 10.0693 12.503 12.4416 15.3512 12.4416C16.8405 12.4416 18.1852 11.7959 19.1335 10.7552C20.0012 9.80291 20.5339 8.5226 20.5339 7.1109C20.5339 4.15254 18.1993 1.78027 15.3512 1.78027ZM8.97217 7.1109C8.97217 3.52053 11.814 0.583984 15.3512 0.583984C18.8883 0.583984 21.7302 3.52053 21.7302 7.1109C21.7302 8.6216 21.2279 10.0149 20.3834 11.1225L23.9285 14.6916C24.1613 14.926 24.1601 15.3047 23.9257 15.5375C23.6913 15.7703 23.3126 15.769 23.0798 15.5347L19.5729 12.0041C18.4499 13.019 16.972 13.6378 15.3512 13.6378C11.814 13.6378 8.97217 10.7013 8.97217 7.1109ZM5.98141 4.17334C5.98141 4.50368 5.71361 4.77148 5.38327 4.77148H0.59814C0.2678 4.77148 0 4.50368 0 4.17334C0 3.84299 0.2678 3.5752 0.59814 3.5752H5.38327C5.71361 3.5752 5.98141 3.84299 5.98141 4.17334ZM5.98141 8.9585C5.98141 9.2888 5.71361 9.5566 5.38327 9.5566H0.59814C0.2678 9.5566 0 9.2888 0 8.9585C0 8.6281 0.2678 8.3603 0.59814 8.3603H5.38327C5.71361 8.3603 5.98141 8.6281 5.98141 8.9585ZM8.37397 13.7436C8.37397 14.0739 8.10617 14.3417 7.77583 14.3417H0.59814C0.2678 14.3417 0 14.0739 0 13.7436C0 13.4132 0.2678 13.1454 0.59814 13.1454H7.77583C8.10617 13.1454 8.37397 13.4132 8.37397 13.7436Z" fill="black"/>
</svg>
