<svg width="40" height="26.667" xmlns:xlink="http://www.w3.org/1999/xlink" xmlns="http://www.w3.org/2000/svg"><path d="M35.088 10.077a5.829 5.802 0 01-5.83 5.801 5.829 5.802 0 01-5.828-5.801 5.829 5.802 0 015.829-5.801 5.829 5.802 0 015.829 5.8zm-15.875 0a5.829 5.802 0 01-5.828 5.801 5.829 5.802 0 01-5.83-5.801 5.829 5.802 0 015.83-5.801 5.829 5.802 0 015.828 5.8zM3.265 1h35.13a.603.6 0 01.605.602V18.5a.603.6 0 01-.605.602H3.447m27.015.13v2.651a.488.486 0 01-.49.487h-4.596a.488.486 0 01-.489-.487v-2.651m-3.046 0v2.651a.488.486 0 01-.49.487H6.793a.488.486 0 01-.49-.487v-2.651M1.513 1H2.9a.512.51 0 01.512.51v23.647a.512.51 0 01-.512.51H1.512a.512.51 0 01-.512-.51V1.51A.512.51 0 011.512 1z" stroke="#151528" fill="none" stroke-width="2" stroke-linecap="square"/><use xlink:href="#a" transform="translate(15.866)" width="100%" height="100%" stroke-width="1.213"/><path id="a" d="M12.07 6.098l.903 2.698a1.306 1.306 0 00-.214.094l-1.367-2.496-1.8 1.924 2.597 1.18-.02.043-.032.087-2.71-.9v2.632l2.713-.9c.02.059.044.116.07.17l-2.56 1.273 1.875 1.866 1.278-2.549c.055.027.112.051.171.07l-.904 2.701h2.643l-.904-2.7a1.322 1.316 0 00.215-.092l1.366 2.494 1.801-1.924-2.598-1.18c.02-.042.037-.085.052-.13l2.712.901V8.729l-2.713.9a1.325 1.319 0 00-.07-.172l2.558-1.27-1.875-1.867-1.276 2.547a1.325 1.319 0 00-.173-.07l.905-2.7z" fill="#151528" stroke-width="1"/></svg>