<svg width="24" height="40" xmlns="http://www.w3.org/2000/svg"><path d="M11.994 34.026v0m0-9.037v5.878m-3.546-9.806v0m2.364 0v0m2.364 0v0m2.364 0v0m-7.092-2.747h7.091M4.485 4.055h15.018a.31.31 0 01.31.31v3.18a.31.309 0 01-.31.308H4.485a.31.309 0 01-.311-.309v-3.18a.31.31 0 01.31-.309zm0 6.946h15.018a.31.31 0 01.31.31v3.18a.31.309 0 01-.31.308H4.485a.31.309 0 01-.311-.31v-3.18a.31.31 0 01.31-.308zM.994 1h22v38h-22z" fill="none" stroke="#151528" stroke-width="2" stroke-linecap="round" stroke-linejoin="round"/></svg>