<svg width="30" height="40" xmlns="http://www.w3.org/2000/svg"><path d="M15 15.251v0M4.125 35.804v0m21.75 0v0m0-31.608v0m-21.75 0v0m1.22 27.132l2.55 2.533m9.935-12.358L6.793 32.725m5.746-7.262C7.965 24.349 4.568 20.2 4.568 15.252 4.568 9.45 9.238 4.746 15 4.746c5.762 0 10.432 4.704 10.432 10.506 0 5.801-4.67 10.504-10.432 10.504a10.4 10.4 0 01-.698-.023zm5.495-10.212c0 4.075-6.068 4.075-6.068 0 0-4.074 6.068-4.074 6.068 0zM1.387 1h27.226c.214 0 .387.174.387.39v37.22c0 .216-.173.39-.387.39H1.387A.388.388 0 011 38.61V1.39c0-.216.173-.39.387-.39z" fill="none" stroke="#151528" stroke-width="2" stroke-linecap="round" stroke-linejoin="round"/></svg>