<svg width="40" height="40" xmlns="http://www.w3.org/2000/svg"><path d="M8.36 10.215l2.48-2.478c3.927.998 6.438 3.402 7.28 7.463l-2.388 2.387c-1.115-4.027-3.634-6.372-7.37-7.372zm10.26-5.254h3.506c2.071 3.483 2.147 6.959-.13 10.425H18.62c2.06-3.636 1.936-7.076 0-10.425zm11.066 3.465l2.478 2.478c-.998 3.928-3.402 6.44-7.463 7.28l-2.387-2.387c4.027-1.115 6.371-3.635 7.372-7.371zm5.469 10.228v3.505c-3.484 2.071-6.96 2.147-10.426-.13v-3.376c3.635 2.06 7.076 1.935 10.426 0zm-3.445 11.25l-2.478 2.478c-3.928-.998-6.439-3.402-7.28-7.463l2.387-2.387c1.115 4.027 3.635 6.372 7.372 7.372zm-10.485 5.202H17.72c-2.07-3.483-2.147-6.96.13-10.425h3.376c-2.06 3.636-1.935 7.076 0 10.425zM10.21 31.512l-2.479-2.478c.998-3.928 3.403-6.44 7.464-7.28l2.386 2.387c-4.027 1.115-6.371 3.635-7.371 7.371zM4.898 21.344v-3.505c3.483-2.071 6.958-2.147 10.426.13v3.375c-3.637-2.06-7.077-1.935-10.426 0zM2.921 1h34.156A1.918 1.918 0 0139 2.922v34.156A1.918 1.918 0 0137.078 39H2.922A1.918 1.918 0 011 37.078V2.922A1.918 1.918 0 012.922 1zm36.043 19c0 10.474-8.49 18.965-18.964 18.965-10.474 0-18.965-8.49-18.965-18.965C1.035 9.526 9.525 1.035 20 1.035c10.474 0 18.965 8.49 18.965 18.965zm-14.483 0a4.482 4.482 0 11-8.965 0 4.482 4.482 0 018.966 0z" stroke="#151528" fill="none" stroke-width="2"/><path d="M4.196 35.805v0m31.608 0v0m0-31.61v0m-31.608 0v0" fill="none" stroke="#151528" stroke-width="2" stroke-linecap="round" stroke-linejoin="round"/></svg>