<svg width="40" height="40" xmlns="http://www.w3.org/2000/svg"><path d="M10.118 2.853V1m23.058 1.853V1m-3.294 1.853V1M26.59 2.853V1m-3.295 1.853V1M20 2.853V1m-3.294 1.853V1m-3.294 1.853V1M6.825 2.853V1M1 10.118h1.853M1 33.176h1.853M1 29.882h1.853M1 26.588h1.853M1 23.294h1.853M1 20h1.853M1 16.706h1.853M1 13.412h1.853M1 6.825h1.853M10.118 39v-1.853M33.176 39v-1.853M29.882 39v-1.853M26.588 39v-1.853M23.294 39v-1.853M20 39v-1.853M16.706 39v-1.853M13.412 39v-1.853M6.825 39v-1.853m30.322-27.029H39m-1.853 23.058H39m-1.853-3.294H39m-1.853-3.293H39m-1.853-3.295H39M37.147 20H39m-1.853-3.294H39m-1.853-3.294H39m-1.853-6.587H39m-24.328 6.063h10.656a1.78 1.78 0 011.785 1.783v10.658a1.779 1.779 0 01-1.785 1.783H14.672a1.779 1.779 0 01-1.785-1.783V14.671a1.78 1.78 0 011.785-1.783zM6.027 3.065h27.945a2.956 2.956 0 012.962 2.963v27.944a2.956 2.956 0 01-2.962 2.963H6.028a2.956 2.956 0 01-2.963-2.963V6.028a2.956 2.956 0 012.963-2.963z" stroke="#151528" fill="none" stroke-width="2" stroke-linecap="square"/></svg>