<svg width="30" height="40" xmlns="http://www.w3.org/2000/svg"><path d="M4.125 35.804h0m21.75 0h0m0-31.608h0m-21.75 0h0M1.457 1h27.086c.253 0 .457.205.457.46v37.08c0 .255-.204.46-.457.46H1.457A.457.457 0 011 38.54V1.46c0-.255.204-.46.457-.46zm20.185.213v2.393a.42.42 0 01-.418.423H8.823a.42.42 0 01-.42-.423v-2.39m.42 11.73h12.4a.42.42 0 01.42.421v17.247a.42.42 0 01-.42.422h-12.4a.42.42 0 01-.42-.422V13.367a.42.42 0 01.42-.421z" stroke="#151528" stroke-width="2" stroke-linecap="round" stroke-linejoin="round" fill="none"/></svg>