<svg width="40" height="25" xmlns="http://www.w3.org/2000/svg"><path d="M20.294 12.486a7.416 7.375 0 01-7.417 7.375 7.416 7.375 0 01-7.416-7.375 7.416 7.375 0 017.416-7.374 7.416 7.375 0 017.417 7.374zm8.721 4.206h3.307v.887h-3.307zm-.867-11.148h4.937c.458 0 .827.371.827.834V9.66a.828.828 0 01-.827.834h-4.938a.831.826 0 01-.827-.834V6.378c0-.463.37-.834.827-.834zM1.823.997h36.359c.454 0 .82.364.82.817V23.18a.817.817 0 01-.82.817H1.824a.82.815 0 01-.821-.817V1.814c0-.452.366-.817.821-.817z" stroke="#151528" fill="none" stroke-width="2" stroke-linecap="round" stroke-linejoin="round"/><path d="M11.247 7.569l1.13 3.371c-.093.03-.182.07-.269.117l-1.712-3.119-2.247 2.399 3.25 1.478c-.009.018-.019.036-.026.054a1.647 1.638 0 00-.041.11l-3.39-1.124v3.285l3.39-1.123c.025.074.056.146.091.216l-3.2 1.59 2.338 2.324 1.6-3.182c.069.035.141.066.216.09l-1.13 3.371h3.304l-1.13-3.371a1.644 1.635 0 00.268-.115l1.713 3.117 2.247-2.398L14.4 13.18c.025-.054.046-.108.065-.164l3.39 1.123v-3.285l-3.39 1.122a1.66 1.65 0 00-.09-.215l3.2-1.59-2.339-2.324-1.599 3.18a1.659 1.65 0 00-.216-.088l1.129-3.371z" fill="#151528"/></svg>