<svg width="40" height="40" xmlns="http://www.w3.org/2000/svg"><path d="M27.278 9.61v-.96m-2.629.96v-.96m-2.63.96v-.96m5.259 11.07v-.96m-2.629.96v-.96m-2.63.96v-.96m7.176-1.994h.96m-.96-2.631h.96m-.96-2.629h.96m-11.05 5.258h.96m-.96-2.63h.96m-.96-2.628h.96m.707-1.846h7.755c.33 0 .597.266.597.597v7.755a.596.596 0 01-.597.599h-7.755a.596.596 0 01-.599-.599v-7.755c0-.33.267-.597.599-.597zm-.785 21.63h9.469m-9.469-2.655h9.469m-9.469-2.654h9.469M9.368 5.599V23.75M6.188 5.6V23.75m3.89 4.984c.241 0 .434.193.434.435v4.733c0 .24-.194.434-.433.434H5.345a.433.433 0 01-.433-.435V29.17c0-.24.193-.434.313-.435zM2.827 1h34.348A1.82 1.82 0 0139 2.826v34.348A1.821 1.821 0 0137.174 39H2.826A1.82 1.82 0 011 37.174V2.826A1.82 1.82 0 012.826 1z" stroke="#151528" fill="none" stroke-width="2" stroke-linecap="square"/><path d="M34.383 5.303v0m0 3.914v0" fill="none" stroke="#151528" stroke-width="2" stroke-linecap="round" stroke-linejoin="round"/></svg>