<svg width="20" height="14" viewBox="0 0 20 14" fill="none" xmlns="http://www.w3.org/2000/svg">
<g clip-path="url(#clip0_1302_18)">
<path fill-rule="evenodd" clip-rule="evenodd" d="M20 1.59033C20 1.92067 19.7322 2.18847 19.4019 2.18847H0.598141C0.267797 2.18847 0 1.92067 0 1.59033C0 1.25998 0.267797 0.992188 0.598141 0.992188H19.4019C19.7322 0.992188 20 1.25998 20 1.59033ZM20 7.37545C20 7.7058 19.7322 7.9736 19.4019 7.9736H0.598141C0.267797 7.9736 0 7.7058 0 7.37545C0 7.04511 0.267797 6.77731 0.598141 6.77731H19.4019C19.7322 6.77731 20 7.04511 20 7.37545ZM20 13.1606C20 13.4909 19.7322 13.7587 19.4019 13.7587H0.598141C0.267797 13.7587 0 13.4909 0 13.1606C0 12.8302 0.267797 12.5624 0.598141 12.5624H19.4019C19.7322 12.5624 20 12.8302 20 13.1606Z" fill="black"/>
</g>
<defs>
<clipPath id="clip0_1302_18">
<rect width="20" height="14" fill="white"/>
</clipPath>
</defs>
</svg>
