<svg width="14" height="15" viewBox="0 0 14 15" fill="none" xmlns="http://www.w3.org/2000/svg">
<g clip-path="url(#clip0)">
<path d="M13.53 10.19L11.78 8.44C11.6535 8.29837 11.4998 8.18373 11.3279 8.10297C11.1561 8.0222 10.9697 7.97698 10.78 7.97C10.5904 7.9781 10.4044 8.02382 10.2327 8.10451C10.0611 8.1852 9.90714 8.29925 9.77996 8.44L8.77996 9.44L8.48996 9.28999C8.38007 9.23961 8.27322 9.18285 8.16996 9.12C7.16863 8.46458 6.27757 7.65452 5.52996 6.72C5.17662 6.28464 4.87775 5.80779 4.63997 5.3C4.90997 5.05 5.16996 4.78999 5.41996 4.53999L5.68997 4.25999C5.97356 4.00149 6.14565 3.64295 6.16996 3.25999C6.16328 3.06195 6.11742 2.86719 6.03503 2.68697C5.95264 2.50674 5.83537 2.34463 5.68997 2.20999L4.81996 1.34L4.51997 1.03999C4.32997 0.839993 4.12996 0.639997 3.92996 0.449997C3.66776 0.175759 3.3091 0.0143655 2.92996 0C2.55247 0.0212907 2.19624 0.181592 1.92996 0.449997L0.699963 1.53999C0.309767 1.92313 0.0717255 2.43474 0.0299644 2.98C-0.00241593 3.7771 0.137431 4.57182 0.439968 5.31C1.01221 6.77178 1.83072 8.1247 2.85997 9.31C4.22803 10.948 5.93353 12.2715 7.85997 13.19C8.72357 13.635 9.6633 13.9132 10.63 14.01H10.83C11.165 14.0204 11.4983 13.9568 11.8059 13.8237C12.1136 13.6906 12.3881 13.4913 12.61 13.24C12.7869 13.0311 12.9773 12.834 13.18 12.65L13.59 12.25C13.7273 12.114 13.8352 11.9513 13.907 11.7719C13.9788 11.5924 14.013 11.4001 14.0073 11.207C14.0017 11.0138 13.9564 10.8238 13.8743 10.6489C13.7922 10.4739 13.675 10.3178 13.53 10.19ZM12.81 11.59C12.6909 11.7241 12.564 11.8509 12.43 11.97C12.18 12.22 11.98 12.42 11.8 12.63C11.6743 12.7697 11.5198 12.8805 11.3471 12.9547C11.1745 13.0289 10.9878 13.0649 10.8 13.06H10.65C9.81317 12.9663 9.00015 12.7224 8.24997 12.34C6.46163 11.4798 4.87659 10.2493 3.59996 8.73C2.63981 7.62428 1.88161 6.35833 1.35997 4.98999C1.10712 4.38947 0.987694 3.7412 1.00996 3.09C1.03327 2.7826 1.16847 2.49442 1.38997 2.28L2.47996 1.19C2.5651 1.09596 2.6834 1.0386 2.80996 1.03C2.80996 1.03 2.95996 1.03 3.12996 1.2C3.29996 1.37 3.51996 1.57999 3.69996 1.75999L4.00996 2.08L4.87996 2.95C4.98264 3.03636 5.05022 3.15728 5.06996 3.28999C5.04935 3.42241 4.98193 3.54304 4.87996 3.62999L4.59996 3.90999C4.36996 4.14999 4.12996 4.39 3.86996 4.62L3.33996 5.09999L3.61996 5.75999C3.88006 6.35117 4.21624 6.90585 4.61996 7.40999C5.42948 8.43563 6.40253 9.32084 7.49997 10.03C7.631 10.1134 7.76805 10.1869 7.90997 10.25L8.13997 10.38L8.80996 10.76L10.4 9.17999C10.4812 9.08308 10.595 9.01909 10.72 9C10.7803 9.00649 10.8387 9.02484 10.8919 9.05402C10.9452 9.08319 10.9921 9.12262 11.03 9.17L12.79 10.93C13 11.07 13.12 11.28 12.81 11.59Z" fill="black"/>
</g>
<defs>
<clipPath id="clip0">
<rect width="14" height="14.05" fill="white"/>
</clipPath>
</defs>
</svg>
